# xmcd
#
# Track frame offsets: 
#        150
#        20167
#        35953
#        50184
#        81156
#        89492
#        108526
#        131609
#        152029
#        172608
#
# Disc length: 2464 seconds
#
# Revision: 0
# Processed by: cddbd v1.5.2PL0 Copyright (c) Steve Scherf et al.
# Submitted via: ExactAudioCopy v0.99pb4
#
DISCID=86099e0a
DTITLE=Amund Maarud - Electric
DYEAR=2011
DGENRE=Blues
TTITLE0=Derailed
TTITLE1=I Can`t Believe
TTITLE2=Stars In Your Eyes
TTITLE3=Your Love (L.P Version)
TTITLE4=Baby, You`re Mine
TTITLE5=Stay A While
TTITLE6=Farmer
TTITLE7=Motorcycle Mama
TTITLE8=Stand The Test Of Mine
TTITLE9=Money Will Roll Right In
EXTD=
EXTT0=
EXTT1=
EXTT2=
EXTT3=
EXTT4=
EXTT5=
EXTT6=
EXTT7=
EXTT8=
EXTT9=
PLAYORDER=
